<svg width="26" height="26" viewBox="0 0 26 26" fill="none" xmlns="http://www.w3.org/2000/svg">
<path d="M16.7562 9.24374C17.68 9.21602 18.5567 8.82956 19.2004 8.16631C19.844 7.50306 20.204 6.61518 20.204 5.69096C20.204 4.76675 19.844 3.87887 19.2004 3.21562C18.5567 2.55237 17.68 2.16591 16.7562 2.13818H9.64962C8.72581 2.16591 7.84914 2.55237 7.20549 3.21562C6.56185 3.87887 6.20186 4.76675 6.20186 5.69096C6.20186 6.61518 6.56185 7.50306 7.20549 8.16631C7.84914 8.82956 8.72581 9.21602 9.64962 9.24374C8.71774 9.25989 7.82948 9.64141 7.17618 10.3061C6.52288 10.9708 6.1568 11.8656 6.1568 12.7976C6.1568 13.7296 6.52288 14.6243 7.17618 15.2891C7.82948 15.9538 8.71774 16.3353 9.64962 16.3514C8.72229 16.3742 7.84059 16.7585 7.19276 17.4224C6.54492 18.0863 6.1823 18.9771 6.1823 19.9048C6.1823 20.8324 6.54492 21.7232 7.19276 22.3871C7.84059 23.051 8.72229 23.4353 9.64962 23.4581C10.592 23.4575 11.4957 23.0828 12.1619 22.4163C12.8282 21.7498 13.2026 20.8461 13.2029 19.9037V9.24374H16.7562Z" fill="#CCD6F6"/>
<path d="M16.7563 16.3504C18.7187 16.3504 20.3096 14.7595 20.3096 12.7971C20.3096 10.8346 18.7187 9.24377 16.7563 9.24377C14.7938 9.24377 13.2029 10.8346 13.2029 12.7971C13.2029 14.7595 14.7938 16.3504 16.7563 16.3504Z" fill="#CCD6F6"/>
</svg>
