<svg width="27" height="26" viewBox="0 0 27 26" fill="none" xmlns="http://www.w3.org/2000/svg">
<path d="M3.83765 3.19922H23.0332V22.3948H3.83765V3.19922ZM21.4602 17.8166C21.3205 16.9411 20.75 16.2053 19.0587 15.5185C18.47 15.2423 17.8163 15.0514 17.6201 14.6078C17.5475 14.3433 17.5369 14.2004 17.5838 14.0436C17.7043 13.5275 18.3164 13.3729 18.7963 13.5158C19.1088 13.6117 19.3967 13.8517 19.5769 14.2367C20.4034 13.696 20.4034 13.696 20.9804 13.3366C20.7639 13.0018 20.6562 12.8557 20.5122 12.7117C20.0078 12.1486 19.3359 11.8607 18.245 11.8852L17.6819 11.9567C17.1412 12.0889 16.6251 12.3779 16.3137 12.7607C15.4019 13.793 15.6653 15.5921 16.7691 16.3375C17.86 17.1533 19.4575 17.3325 19.6612 18.1003C19.8531 19.0366 18.9659 19.3363 18.0882 19.2286C17.4409 19.0836 17.0805 18.7604 16.6848 18.16L15.2217 19.0004C15.3891 19.3832 15.5811 19.5517 15.869 19.8876C17.2607 21.291 20.7404 21.2196 21.3643 19.0836C21.3867 19.0121 21.5562 18.5205 21.424 17.7644L21.4602 17.8166ZM14.2758 12.0217H12.4778C12.4778 13.5712 12.4703 15.1122 12.4703 16.6649C12.4703 17.6503 12.5204 18.5546 12.3594 18.8329C12.096 19.3843 11.4146 19.3139 11.1064 19.2158C10.7896 19.0601 10.6286 18.8436 10.442 18.5322C10.3919 18.449 10.3545 18.3765 10.3407 18.3765L8.88182 19.2766C9.12603 19.781 9.48221 20.214 9.94184 20.4891C10.6254 20.8975 11.5436 21.0298 12.5055 20.8144C13.1326 20.6331 13.6732 20.2609 13.9537 19.685C14.3632 18.9417 14.2758 18.0289 14.2726 17.0094C14.2811 15.366 14.2726 13.7216 14.2726 12.0665L14.2758 12.0217Z" fill="#CCD6F6"/>
</svg>
