<svg width="27" height="27" viewBox="0 0 27 27" fill="none" xmlns="http://www.w3.org/2000/svg">
<path d="M10.7271 13.2582H15.3426C15.3426 13.2582 17.9361 13.2998 17.9361 10.7521V6.5387C17.9361 6.5387 18.3296 3.98889 13.2343 3.98889C8.35646 3.98889 8.66039 6.1036 8.66039 6.1036L8.66679 8.2951H13.3196V8.95308H6.81868C6.81868 8.95308 3.69727 8.59903 3.69727 13.5195C3.69727 18.44 6.42197 18.2651 6.42197 18.2651H8.0472V15.9819C8.0472 15.9819 7.95868 13.2582 10.7271 13.2582ZM10.6674 7.13697C10.4454 7.13697 10.2324 7.04877 10.0754 6.89177C9.91845 6.73478 9.83025 6.52185 9.83025 6.29982C9.83025 6.0778 9.91845 5.86487 10.0754 5.70788C10.2324 5.55088 10.4454 5.46268 10.6674 5.46268C10.8894 5.46268 11.1023 5.55088 11.2593 5.70788C11.4163 5.86487 11.5045 6.0778 11.5045 6.29982C11.5045 6.52185 11.4163 6.73478 11.2593 6.89177C11.1023 7.04877 10.8894 7.13697 10.6674 7.13697Z" fill="#CCD6F6"/>
<path d="M20.1831 8.82192H18.5579V11.1051C18.5579 11.1051 18.6464 13.8288 15.878 13.8288H11.2625C11.2625 13.8288 8.66897 13.7861 8.66897 16.3349V20.5483C8.66897 20.5483 8.27546 23.0981 13.3708 23.0981C18.2476 23.0981 17.9436 20.9834 17.9436 20.9834L17.9372 18.793H13.2844V18.135H19.7864C19.7864 18.135 22.9078 18.489 22.9078 13.5686C22.9078 8.6481 20.1831 8.82192 20.1831 8.82192ZM15.9377 19.9511C16.1597 19.9511 16.3726 20.0393 16.5296 20.1963C16.6866 20.3533 16.7748 20.5662 16.7748 20.7882C16.7748 21.0103 16.6866 21.2232 16.5296 21.3802C16.3726 21.5372 16.1597 21.6254 15.9377 21.6254C15.7157 21.6254 15.5027 21.5372 15.3457 21.3802C15.1888 21.2232 15.1006 21.0103 15.1006 20.7882C15.1006 20.5662 15.1888 20.3533 15.3457 20.1963C15.5027 20.0393 15.7157 19.9511 15.9377 19.9511Z" fill="#CCD6F6"/>
</svg>
