<svg width="24" height="24" viewBox="0 0 24 24" fill="none" xmlns="http://www.w3.org/2000/svg">
<path d="M6.67098 5.00904C6.67098 5.9413 5.91524 6.69704 4.98298 6.69704C4.05073 6.69704 3.29498 5.9413 3.29498 5.00904C3.29498 4.07679 4.05073 3.32104 4.98298 3.32104C5.91524 3.32104 6.67098 4.07679 6.67098 5.00904Z" fill="#0A192F" stroke="#CCD6F6"/>
<path d="M9.23697 8.85493V20.9939H13.006V14.9909C13.006 13.4069 13.304 11.8729 15.268 11.8729C17.205 11.8729 17.229 13.6839 17.229 15.0909V20.9949H21V14.3379C21 11.0679 20.296 8.55493 16.474 8.55493C14.639 8.55493 13.409 9.56193 12.906 10.5149H12.855V8.85493H9.23697V8.85493ZM3.09497 8.85493H6.86997V20.9939H3.09497V8.85493Z" fill="#CCD6F6"/>
<path d="M9.73697 20.4939V9.35493H12.355V10.5149V11.0149H12.855H12.906H13.2074L13.3482 10.7483C13.7687 9.95149 14.8331 9.05493 16.474 9.05493C18.262 9.05493 19.2083 9.63197 19.7473 10.4868C20.3196 11.3946 20.5 12.7138 20.5 14.3379V20.4949H17.729V15.0909V15.0877C17.729 14.4071 17.729 13.503 17.4399 12.7707C17.2895 12.3895 17.0522 12.0293 16.6778 11.7679C16.3024 11.5058 15.832 11.3729 15.268 11.3729C14.712 11.3729 14.2375 11.4817 13.8436 11.7C13.4468 11.92 13.1619 12.2345 12.9624 12.5969C12.5766 13.2981 12.506 14.1901 12.506 14.9909V20.4939H9.73697ZM3.59497 9.35493H6.36997V20.4939H3.59497V9.35493Z" fill="#0A192F" stroke="#CCD6F6"/>
</svg>
