<svg width="24" height="24" viewBox="0 0 24 24" fill="none" xmlns="http://www.w3.org/2000/svg">
<mask id="path-1-inside-1_35_32" fill="white">
<path d="M19.62 13.1053L10.889 4.37634C10.6469 4.13531 10.3191 4 9.9775 4C9.63586 4 9.30813 4.13531 9.066 4.37634L7.257 6.18734L9.556 8.48734C9.82725 8.39569 10.1188 8.38188 10.3974 8.44749C10.6761 8.51309 10.9309 8.65548 11.1328 8.85851C11.3346 9.06153 11.4756 9.31707 11.5396 9.59613C11.6036 9.8752 11.5882 10.1666 11.495 10.4373L13.709 12.6543C14.0368 12.5393 14.394 12.5393 14.7218 12.6542C15.0496 12.7691 15.3285 12.9922 15.5128 13.2867C15.697 13.5813 15.7755 13.9297 15.7353 14.2748C15.6952 14.6198 15.5389 14.9409 15.292 15.1853C14.693 15.7853 13.726 15.7853 13.126 15.1853C12.9129 14.972 12.7673 14.7006 12.7073 14.4051C12.6474 14.1095 12.6758 13.8029 12.789 13.5233L10.715 11.4603V16.8973C10.861 16.9683 11.001 17.0663 11.122 17.1873C11.4079 17.4753 11.5684 17.8646 11.5684 18.2703C11.5684 18.6761 11.4079 19.0654 11.122 19.3533C10.9793 19.4962 10.8099 19.6096 10.6234 19.6869C10.4369 19.7643 10.2369 19.8041 10.035 19.8041C9.83308 19.8041 9.63314 19.7643 9.44662 19.6869C9.2601 19.6096 9.09066 19.4962 8.948 19.3533C8.80565 19.2114 8.69271 19.0428 8.61565 18.8571C8.53858 18.6714 8.49892 18.4724 8.49892 18.2713C8.49892 18.0703 8.53858 17.8713 8.61565 17.6856C8.69271 17.4999 8.80565 17.3313 8.948 17.1893C9.1 17.0393 9.27 16.9253 9.452 16.8503V11.3603C9.26503 11.2838 9.09508 11.1709 8.95198 11.0283C8.80887 10.8857 8.69546 10.7161 8.61828 10.5294C8.5411 10.3427 8.50169 10.1425 8.50233 9.94051C8.50297 9.73847 8.54364 9.53856 8.622 9.35234L6.362 7.08134L0.375 13.0633C-0.125 13.5673 -0.125 14.3833 0.375 14.8873L9.106 23.6163C9.22546 23.7361 9.36737 23.8311 9.52361 23.896C9.67985 23.9608 9.84734 23.9942 10.0165 23.9942C10.1857 23.9942 10.3532 23.9608 10.5094 23.896C10.6656 23.8311 10.8075 23.7361 10.927 23.6163L19.617 14.9273C19.7374 14.8082 19.8329 14.6664 19.8983 14.5102C19.9636 14.3539 19.9974 14.1863 19.9977 14.017C19.9979 13.8476 19.9647 13.6799 19.8999 13.5234C19.8351 13.367 19.74 13.2249 19.62 13.1053"/>
</mask>
<path d="M19.62 13.1053L10.889 4.37634C10.6469 4.13531 10.3191 4 9.9775 4C9.63586 4 9.30813 4.13531 9.066 4.37634L7.257 6.18734L9.556 8.48734C9.82725 8.39569 10.1188 8.38188 10.3974 8.44749C10.6761 8.51309 10.9309 8.65548 11.1328 8.85851C11.3346 9.06153 11.4756 9.31707 11.5396 9.59613C11.6036 9.8752 11.5882 10.1666 11.495 10.4373L13.709 12.6543C14.0368 12.5393 14.394 12.5393 14.7218 12.6542C15.0496 12.7691 15.3285 12.9922 15.5128 13.2867C15.697 13.5813 15.7755 13.9297 15.7353 14.2748C15.6952 14.6198 15.5389 14.9409 15.292 15.1853C14.693 15.7853 13.726 15.7853 13.126 15.1853C12.9129 14.972 12.7673 14.7006 12.7073 14.4051C12.6474 14.1095 12.6758 13.8029 12.789 13.5233L10.715 11.4603V16.8973C10.861 16.9683 11.001 17.0663 11.122 17.1873C11.4079 17.4753 11.5684 17.8646 11.5684 18.2703C11.5684 18.6761 11.4079 19.0654 11.122 19.3533C10.9793 19.4962 10.8099 19.6096 10.6234 19.6869C10.4369 19.7643 10.2369 19.8041 10.035 19.8041C9.83308 19.8041 9.63314 19.7643 9.44662 19.6869C9.2601 19.6096 9.09066 19.4962 8.948 19.3533C8.80565 19.2114 8.69271 19.0428 8.61565 18.8571C8.53858 18.6714 8.49892 18.4724 8.49892 18.2713C8.49892 18.0703 8.53858 17.8713 8.61565 17.6856C8.69271 17.4999 8.80565 17.3313 8.948 17.1893C9.1 17.0393 9.27 16.9253 9.452 16.8503V11.3603C9.26503 11.2838 9.09508 11.1709 8.95198 11.0283C8.80887 10.8857 8.69546 10.7161 8.61828 10.5294C8.5411 10.3427 8.50169 10.1425 8.50233 9.94051C8.50297 9.73847 8.54364 9.53856 8.622 9.35234L6.362 7.08134L0.375 13.0633C-0.125 13.5673 -0.125 14.3833 0.375 14.8873L9.106 23.6163C9.22546 23.7361 9.36737 23.8311 9.52361 23.896C9.67985 23.9608 9.84734 23.9942 10.0165 23.9942C10.1857 23.9942 10.3532 23.9608 10.5094 23.896C10.6656 23.8311 10.8075 23.7361 10.927 23.6163L19.617 14.9273C19.7374 14.8082 19.8329 14.6664 19.8983 14.5102C19.9636 14.3539 19.9974 14.1863 19.9977 14.017C19.9979 13.8476 19.9647 13.6799 19.8999 13.5234C19.8351 13.367 19.74 13.2249 19.62 13.1053" fill="#0A192F"/>
<path d="M10.889 4.37634L11.596 3.66915L11.5945 3.66763L10.889 4.37634ZM9.9775 4L9.9775 3L9.9775 4ZM9.066 4.37634L8.3605 3.66762L8.3585 3.66962L9.066 4.37634ZM7.257 6.18734L6.5495 5.48062L5.84333 6.18758L6.54974 6.89429L7.257 6.18734ZM9.556 8.48734L8.84874 9.19429L9.28777 9.63352L9.87611 9.43472L9.556 8.48734ZM11.495 10.4373L10.5494 10.1119L10.3462 10.7022L10.7874 11.144L11.495 10.4373ZM13.709 12.6543L13.0014 13.361L13.4462 13.8063L14.0401 13.5979L13.709 12.6543ZM15.292 15.1853L14.5884 14.4747L14.5843 14.4788L15.292 15.1853ZM13.126 15.1853L12.4185 15.8921L12.4189 15.8924L13.126 15.1853ZM12.789 13.5233L13.7159 13.8987L13.9652 13.2829L13.4942 12.8144L12.789 13.5233ZM10.715 11.4603L11.4202 10.7514L9.715 9.05518V11.4603H10.715ZM10.715 16.8973H9.715V17.523L10.2777 17.7966L10.715 16.8973ZM11.122 17.1873L11.8316 16.4827L11.8291 16.4802L11.122 17.1873ZM11.122 19.3533L11.8297 20.0599L11.8316 20.058L11.122 19.3533ZM8.948 19.3533L9.65568 18.6468L9.6541 18.6452L8.948 19.3533ZM8.49892 18.2713L7.49892 18.2713L8.49892 18.2713ZM8.948 17.1893L8.24558 16.4776L8.2419 16.4812L8.948 17.1893ZM9.452 16.8503L9.833 17.7749L10.452 17.5198V16.8503H9.452ZM9.452 11.3603H10.452V10.6892L9.83089 10.4349L9.452 11.3603ZM8.622 9.35234L9.54373 9.74018L9.80376 9.12219L9.33082 8.64695L8.622 9.35234ZM6.362 7.08134L7.07082 6.37595L6.36401 5.66571L5.65519 6.37394L6.362 7.08134ZM0.375 13.0633L-0.331818 12.3559L-0.334918 12.3591L0.375 13.0633ZM0.375 14.8873L-0.334924 15.5916L-0.332026 15.5945L0.375 14.8873ZM9.106 23.6163L9.81401 22.9101L9.81303 22.9092L9.106 23.6163ZM10.927 23.6163L10.2199 22.9092L10.219 22.9101L10.927 23.6163ZM19.617 14.9273L18.9135 14.2167L18.9099 14.2202L19.617 14.9273ZM20.327 12.3982L11.596 3.66915L10.182 5.08353L18.913 13.8125L20.327 12.3982ZM11.5945 3.66763C11.165 3.24005 10.5836 3 9.9775 3L9.9775 5C10.0547 5 10.1288 5.03058 10.1835 5.08506L11.5945 3.66763ZM9.9775 3C9.37143 3 8.79003 3.24005 8.3605 3.66763L9.7715 5.08506C9.82622 5.03058 9.90029 5 9.9775 5L9.9775 3ZM8.3585 3.66962L6.5495 5.48062L7.9645 6.89406L9.7735 5.08306L8.3585 3.66962ZM6.54974 6.89429L8.84874 9.19429L10.2633 7.78039L7.96426 5.48039L6.54974 6.89429ZM9.87611 9.43472C9.97031 9.40289 10.0715 9.3981 10.1683 9.42088L10.6266 7.47409C10.166 7.36566 9.68419 7.38848 9.23589 7.53996L9.87611 9.43472ZM10.1683 9.42088C10.2651 9.44366 10.3536 9.49311 10.4237 9.56361L11.8419 8.1534C11.5082 7.81785 11.0872 7.58252 10.6266 7.47409L10.1683 9.42088ZM10.4237 9.56361C10.4938 9.63411 10.5427 9.72285 10.5649 9.81976L12.5143 9.37251C12.4085 8.91129 12.1755 8.48895 11.8419 8.1534L10.4237 9.56361ZM10.5649 9.81976C10.5872 9.91666 10.5818 10.0179 10.5494 10.1119L12.4406 10.7628C12.5946 10.3154 12.6201 9.83373 12.5143 9.37251L10.5649 9.81976ZM10.7874 11.144L13.0014 13.361L14.4166 11.9477L12.2026 9.73071L10.7874 11.144ZM14.0401 13.5979C14.1536 13.5581 14.2774 13.5581 14.3909 13.5979L15.0526 11.7105C14.5106 11.5205 13.9199 11.5206 13.3779 11.7107L14.0401 13.5979ZM14.3909 13.5979C14.5045 13.6377 14.6011 13.715 14.6649 13.817L16.3606 12.7565C16.056 12.2694 15.5947 11.9006 15.0526 11.7105L14.3909 13.5979ZM14.6649 13.817C14.7287 13.919 14.7559 14.0397 14.742 14.1593L16.7286 14.3902C16.795 13.8197 16.6652 13.2435 16.3606 12.7565L14.6649 13.817ZM14.742 14.1593C14.7281 14.2788 14.674 14.39 14.5885 14.4747L15.9955 15.896C16.4038 15.4919 16.6623 14.9608 16.7286 14.3902L14.742 14.1593ZM14.5843 14.4788C14.3763 14.6872 14.0429 14.688 13.8331 14.4782L12.4189 15.8924C13.4091 16.8826 15.0097 16.8835 15.9997 15.8919L14.5843 14.4788ZM13.8335 14.4786C13.7591 14.4042 13.7083 14.3095 13.6874 14.2063L11.7273 14.6038C11.8262 15.0918 12.0666 15.5398 12.4185 15.8921L13.8335 14.4786ZM13.6874 14.2063C13.6665 14.1032 13.6764 13.9962 13.7159 13.8987L11.8621 13.148C11.6752 13.6095 11.6284 14.1158 11.7273 14.6038L13.6874 14.2063ZM13.4942 12.8144L11.4202 10.7514L10.0098 12.1693L12.0838 14.2323L13.4942 12.8144ZM9.715 11.4603V16.8973H11.715V11.4603H9.715ZM10.2777 17.7966C10.3262 17.8202 10.3745 17.854 10.4149 17.8944L11.8291 16.4802C11.6275 16.2787 11.3958 16.1164 11.1523 15.998L10.2777 17.7966ZM10.4124 17.892C10.5123 17.9926 10.5684 18.1286 10.5684 18.2703H12.5684C12.5684 17.6006 12.3035 16.958 11.8316 16.4827L10.4124 17.892ZM10.5684 18.2703C10.5684 18.4121 10.5123 18.5481 10.4124 18.6487L11.8316 20.058C12.3035 19.5827 12.5684 18.9401 12.5684 18.2703H10.5684ZM10.4143 18.6468C10.3645 18.6967 10.3054 18.7362 10.2403 18.7632L11.0064 20.6107C11.3144 20.483 11.5941 20.2958 11.8297 20.0599L10.4143 18.6468ZM10.2403 18.7632C10.1752 18.7902 10.1055 18.8041 10.035 18.8041V20.8041C10.3684 20.8041 10.6985 20.7384 11.0064 20.6107L10.2403 18.7632ZM10.035 18.8041C9.96454 18.8041 9.89477 18.7902 9.82968 18.7632L9.06356 20.6107C9.37151 20.7384 9.70162 20.8041 10.035 20.8041V18.8041ZM9.82968 18.7632C9.76459 18.7362 9.70546 18.6967 9.65568 18.6468L8.24032 20.0599C8.47586 20.2958 8.75562 20.483 9.06356 20.6107L9.82968 18.7632ZM9.6541 18.6452C9.60491 18.5962 9.56588 18.5379 9.53925 18.4737L7.69204 19.2404C7.81953 19.5476 8.00639 19.8266 8.2419 20.0615L9.6541 18.6452ZM9.53925 18.4737C9.51262 18.4096 9.49892 18.3408 9.49892 18.2713L7.49892 18.2713C7.49892 18.6039 7.56454 18.9333 7.69204 19.2404L9.53925 18.4737ZM9.49892 18.2713C9.49892 18.2019 9.51262 18.1331 9.53925 18.0689L7.69204 17.3023C7.56454 17.6094 7.49892 17.9388 7.49892 18.2713H9.49892ZM9.53925 18.0689C9.56588 18.0048 9.60491 17.9465 9.6541 17.8975L8.2419 16.4812C8.00639 16.7161 7.81954 16.9951 7.69204 17.3023L9.53925 18.0689ZM9.65041 17.9011C9.71691 17.8355 9.77948 17.797 9.833 17.7749L9.07099 15.9258C8.76052 16.0537 8.48309 16.2432 8.24559 16.4776L9.65041 17.9011ZM10.452 16.8503V11.3603H8.452V16.8503H10.452ZM9.83089 10.4349C9.7662 10.4084 9.7074 10.3694 9.65789 10.32L8.24606 11.7366C8.48275 11.9725 8.76385 12.1592 9.07311 12.2858L9.83089 10.4349ZM9.65789 10.32C9.60838 10.2707 9.56914 10.212 9.54244 10.1474L7.69412 10.9114C7.82177 11.2202 8.00937 11.5007 8.24606 11.7366L9.65789 10.32ZM9.54244 10.1474C9.51574 10.0828 9.5021 10.0136 9.50233 9.94367L7.50234 9.93735C7.50128 10.2715 7.56646 10.6026 7.69412 10.9114L9.54244 10.1474ZM9.50233 9.94367C9.50255 9.87377 9.51662 9.8046 9.54373 9.74018L7.70027 8.96451C7.57067 9.27252 7.50339 9.60317 7.50234 9.93735L9.50233 9.94367ZM9.33082 8.64695L7.07082 6.37595L5.65318 7.78673L7.91318 10.0577L9.33082 8.64695ZM5.65519 6.37394L-0.331811 12.3559L1.08181 13.7707L7.06881 7.78874L5.65519 6.37394ZM-0.334918 12.3591C-1.22169 13.2529 -1.22169 14.6978 -0.334918 15.5916L1.08492 14.1831C0.971694 14.0689 0.971694 13.8818 1.08492 13.7676L-0.334918 12.3591ZM-0.332026 15.5945L8.39897 24.3235L9.81303 22.9092L1.08203 14.1802L-0.332026 15.5945ZM8.39799 24.3225C8.61034 24.5354 8.86261 24.7043 9.14034 24.8196L9.90688 22.9723C9.87214 22.9579 9.84058 22.9368 9.81401 22.9101L8.39799 24.3225ZM9.14034 24.8196C9.41807 24.9348 9.71581 24.9942 10.0165 24.9942V22.9942C9.97888 22.9942 9.94163 22.9867 9.90688 22.9723L9.14034 24.8196ZM10.0165 24.9942C10.3172 24.9942 10.6149 24.9348 10.8927 24.8196L10.1261 22.9723C10.0914 22.9867 10.0541 22.9942 10.0165 22.9942V24.9942ZM10.8927 24.8196C11.1704 24.7043 11.4227 24.5354 11.635 24.3225L10.219 22.9101C10.1924 22.9368 10.1609 22.9579 10.1261 22.9723L10.8927 24.8196ZM11.6341 24.3235L20.3241 15.6345L18.9099 14.2202L10.2199 22.9092L11.6341 24.3235ZM20.3205 15.638C20.5346 15.4261 20.7047 15.1739 20.8209 14.896L18.9757 14.1244C18.9612 14.159 18.9401 14.1903 18.9135 14.2167L20.3205 15.638ZM20.8209 14.896C20.9371 14.618 20.9972 14.3199 20.9977 14.0186L18.9977 14.0153C18.9976 14.0528 18.9901 14.0899 18.9757 14.1244L20.8209 14.896ZM20.9977 14.0186C20.9982 13.7174 20.9391 13.419 20.8238 13.1407L18.976 13.9062C18.9904 13.9408 18.9977 13.9779 18.9977 14.0153L20.9977 14.0186ZM20.8238 13.1407C20.7085 12.8624 20.5393 12.6096 20.3259 12.397L18.9141 13.8137C18.9407 13.8401 18.9617 13.8715 18.976 13.9062L20.8238 13.1407Z" fill="#CCD6F6" mask="url(#path-1-inside-1_35_32)"/>
</svg>
