<svg width="40" height="40" viewBox="0 0 40 40" fill="none" xmlns="http://www.w3.org/2000/svg">
<path d="M12.1186 25V14.8182H18.4325V16.1406H13.6548V19.2429H17.9801V20.5604H13.6548V25H12.1186ZM20.3217 25V14.8182H24.0504C24.773 14.8182 25.3712 14.9375 25.8452 15.1761C26.3191 15.4115 26.6738 15.7313 26.9091 16.1357C27.1444 16.5367 27.2621 16.9891 27.2621 17.4929C27.2621 17.9171 27.1842 18.2751 27.0284 18.5668C26.8726 18.8551 26.6638 19.0871 26.402 19.2628C26.1435 19.4351 25.8584 19.5611 25.5469 19.6406V19.7401C25.8849 19.7566 26.2147 19.866 26.5362 20.0682C26.861 20.267 27.1295 20.5504 27.3416 20.9183C27.5537 21.2862 27.6598 21.7337 27.6598 22.2607C27.6598 22.781 27.5372 23.2483 27.2919 23.6626C27.05 24.0736 26.6754 24.4001 26.1683 24.642C25.6612 24.8807 25.0133 25 24.2244 25H20.3217ZM21.858 23.6825H24.0753C24.8111 23.6825 25.3381 23.54 25.6562 23.255C25.9744 22.9699 26.1335 22.6136 26.1335 22.1861C26.1335 21.8646 26.0523 21.5696 25.8899 21.3011C25.7275 21.0327 25.4955 20.8189 25.1939 20.6598C24.8956 20.5007 24.541 20.4212 24.13 20.4212H21.858V23.6825ZM21.858 19.223H23.9162C24.2609 19.223 24.5708 19.1567 24.8459 19.0241C25.1243 18.8916 25.3447 18.706 25.5071 18.4673C25.6728 18.2254 25.7557 17.9403 25.7557 17.6122C25.7557 17.1913 25.6082 16.8383 25.3132 16.5533C25.0182 16.2682 24.5658 16.1257 23.956 16.1257H21.858V19.223Z" fill="#5FF4D2"/>
<path d="M3.42949 10.433L20 0.866025L36.5705 10.433V29.567L20 39.134L3.42949 29.567V10.433Z" stroke="#5FF4D2" stroke-width="1.5"/>
</svg>
