<svg width="19" height="20" viewBox="0 0 19 20" fill="none" xmlns="http://www.w3.org/2000/svg">
<path d="M3.5 0C1.57 0 0 1.57 0 3.5C0 5.08 1.06 6.403 2.5 6.837V13.997C2.499 14.176 2.527 15.778 3.674 16.928C4.382 17.64 5.33 18 6.49 18V20L10.49 17L6.49 14V16C4.667 16 4.506 14.466 4.5 14V6.837C5.94 6.403 7 5.08 7 3.5C7 1.57 5.429 0 3.5 0ZM3.5 5C2.673 5 2 4.327 2 3.5C2 2.673 2.673 2 3.5 2C4.327 2 5 2.673 5 3.5C5 4.327 4.327 5 3.5 5ZM16.5 13.163V5.997C16.495 4.391 15.423 2 12.49 2V0L8.49 3L12.49 6V4C14.319 4 14.491 5.539 14.5 6V13.163C13.06 13.597 12 14.92 12 16.5C12 18.43 13.57 20 15.5 20C17.43 20 19 18.43 19 16.5C19 14.92 17.94 13.597 16.5 13.163ZM15.5 18C14.673 18 14 17.327 14 16.5C14 15.673 14.673 15 15.5 15C16.327 15 17 15.673 17 16.5C17 17.327 16.327 18 15.5 18Z" fill="#CCD6F6"/>
</svg>
